<?xml version="1.0" encoding="utf-8"?>
<!-- Svg Vector Icons : http://www.onlinewebfonts.com/icon -->
<!DOCTYPE svg PUBLIC "-//W3C//DTD SVG 1.1//EN" "http://www.w3.org/Graphics/SVG/1.1/DTD/svg11.dtd">
<svg version="1.1" xmlns="http://www.w3.org/2000/svg" xmlns:xlink="http://www.w3.org/1999/xlink" x="0px" y="0px" viewBox="0 0 1000 1000" enable-background="new 0 0 1000 1000" xml:space="preserve">
<metadata> Svg Vector Icons : http://www.onlinewebfonts.com/icon </metadata>
<g><path d="M461.1,9.6c27.1,0,54.1,0,81.2,0c1.7,1.3,3.4,3.5,5.3,3.8c12.3,1.7,25.1,1.3,36.8,4.8c19.4,5.8,38.7,12.8,56.9,21.7c21.1,10.3,41.3,22.4,61.1,35c13.2,8.4,26.8,17.5,37.2,29c17.8,19.8,34.5,40.8,49.5,62.8c39.3,57.9,56,122.9,56.3,192.4c0,2.1-0.6,4.1-1,7.1c-51.1-35.4-106.4-55.9-167.3-61c-60.8-5.1-118.8,4.6-176.5,31.3c59.2,29,105.3,68.8,140.1,121.5c35,52.9,53.3,111.3,56.9,176.8c91.1-67.4,139.5-155.8,147.7-268.7c83.9,63.6,131.6,145,142.6,246.8c11.1,102.6-20.7,193.6-89.7,267.8c-80.6,86.7-183.4,120.9-301.9,106.4c-12.7-1.6-79.7-20-92.8-30.4C659.7,879.7,705,722.5,696.3,636.3c-130.8,79.9-261.2,79.6-393.3-2.8c1.2,147.6,66.9,254.6,195.5,324.1c-91.5,46.6-209.1,41.6-296.4-2.6C97.9,902.2,37.2,815.2,15.5,702.2c-11.8-61.3-4.3-123,20.2-181.1c26.2-62.2,63-116.7,122.5-154.6c7.7,111.3,55.5,199.4,145.1,266.5c11.8-135.7,76.5-233.8,197.7-297.4c-120.8-50.2-233.9-41-344.3,29.8c1.9-23.9,2.1-45.3,5.7-66.2c9.1-54.1,29.2-104,62-148.1c12.6-16.9,26.4-33.1,40.6-48.8c7.6-8.4,17.1-15.1,26-22.2c5.5-4.4,11.1-8.8,17.2-12.2c19.3-10.8,38.4-22.3,58.5-31.4c17.2-7.8,35.5-13.5,53.7-18.4c12.3-3.3,25.5-3.2,38.3-4.9C459.7,13.1,460.3,10.8,461.1,9.6z"/></g>
</svg>