<?xml version="1.0" encoding="UTF-8" standalone="no"?>
<!DOCTYPE svg PUBLIC "-//W3C//DTD SVG 1.1//EN" "http://www.w3.org/Graphics/SVG/1.1/DTD/svg11.dtd">
<svg version="1.1" xmlns="http://www.w3.org/2000/svg" xmlns:xlink="http://www.w3.org/1999/xlink" preserveAspectRatio="xMidYMid meet" viewBox="0 0 640 640" width="640" height="640"><defs><path d="M46.56 43.44L611.41 43.44L611.41 608.28L46.56 608.28L46.56 43.44Z" id="hPEgkOj87"></path><path d="M113.58 608.28L113.58 43.44" id="aE679H7m8"></path><path d="M187.1 608.28L187.1 43.44" id="a11qh54l6E"></path><path d="M258.91 608.28L258.91 43.44" id="c2az9E1TG"></path><path d="M332.43 608.28L332.43 43.44" id="b2JtziiJtE"></path><path d="M403.08 608.28L403.08 43.44" id="epridz0RO"></path><path d="M476.61 608.28L476.61 43.44" id="a4SvgukDPf"></path><path d="M537.88 608.28L537.88 43.44" id="bc0Q4D3J3"></path><path d="M611.41 608.28L611.41 43.44" id="a22ifcRIdO"></path><path d="M46.56 110.45L611.41 110.45" id="d2EF7oKPUc"></path><path d="M46.56 183.98L611.41 183.98" id="e4VRLFcWw"></path><path d="M46.56 255.78L611.41 255.78" id="b3WM6GxUS1"></path><path d="M46.56 329.31L611.41 329.31" id="bcnKphk8"></path><path d="M46.56 399.96L611.41 399.96" id="h21yLwCyhs"></path><path d="M46.56 473.48L611.41 473.48" id="aoNtoPM9u"></path><path d="M46.56 534.76L611.41 534.76" id="f3K5eX3byB"></path><path d="M46.56 608.28L611.41 608.28" id="a3LH71g48R"></path><path d="M480.09 402.68L530.64 402.68L530.64 469.5L480.09 469.5L480.09 402.68Z" id="c2yfYuwHW2"></path><path d="M542.13 476.2L608.96 476.2L608.96 530.58L542.13 530.58L542.13 476.2Z" id="eZb0XtAsw"></path><path d="M189.06 114.7L255.88 114.7L255.88 181.53L189.06 181.53L189.06 114.7Z" id="c2K1Lje6Br"></path><path d="M542.13 402.68L608.96 402.68L608.96 469.5L542.13 469.5L542.13 402.68Z" id="akrK1Flx"></path><path d="M262.16 114.7L328.98 114.7L328.98 181.53L262.16 181.53L262.16 114.7Z" id="a1dwakZmbY"></path><path d="M405.61 259.04L472.44 259.04L472.44 325.86L405.61 325.86L405.61 259.04Z" id="bl41z9sv"></path><path d="M262.16 186.89L328.98 186.89L328.98 253.71L262.16 253.71L262.16 186.89Z" id="a2MH1BBZSI"></path><path d="M333.81 258.88L400.63 258.88L400.63 325.71L333.81 325.71L333.81 258.88Z" id="e5btIGUU9j"></path><path d="M542.13 331.07L608.96 331.07L608.96 397.89L542.13 397.89L542.13 331.07Z" id="c6ioBsGEUF"></path><path d="M480.09 331.07L530.64 331.07L530.64 397.89L480.09 397.89L480.09 331.07Z" id="d5bwtEgFHK"></path><path d="M405.61 333.14L472.44 333.14L472.44 399.96L405.61 399.96L405.61 333.14Z" id="g747bivhx"></path><path d="M542.13 258.88L608.96 258.88L608.96 325.71L542.13 325.71L542.13 258.88Z" id="a15FHHIT1r"></path><path d="M480.09 258.88L530.64 258.88L530.64 325.71L480.09 325.71L480.09 258.88Z" id="i2ywNCbn2J"></path></defs><g><g><g><g><use xlink:href="#hPEgkOj87" opacity="1" fill-opacity="0" stroke="#000000" stroke-width="1" stroke-opacity="1"></use></g></g><g><g><use xlink:href="#aE679H7m8" opacity="1" fill-opacity="0" stroke="#000000" stroke-width="5" stroke-opacity="1"></use></g></g><g><g><use xlink:href="#a11qh54l6E" opacity="1" fill-opacity="0" stroke="#000000" stroke-width="1" stroke-opacity="1"></use></g></g><g><g><use xlink:href="#c2az9E1TG" opacity="1" fill-opacity="0" stroke="#000000" stroke-width="1" stroke-opacity="1"></use></g></g><g><g><use xlink:href="#b2JtziiJtE" opacity="1" fill-opacity="0" stroke="#000000" stroke-width="1" stroke-opacity="1"></use></g></g><g><g><use xlink:href="#epridz0RO" opacity="1" fill-opacity="0" stroke="#000000" stroke-width="1" stroke-opacity="1"></use></g></g><g><g><use xlink:href="#a4SvgukDPf" opacity="1" fill-opacity="0" stroke="#000000" stroke-width="1" stroke-opacity="1"></use></g></g><g><g><use xlink:href="#bc0Q4D3J3" opacity="1" fill-opacity="0" stroke="#000000" stroke-width="1" stroke-opacity="1"></use></g></g><g><g><use xlink:href="#a22ifcRIdO" opacity="1" fill-opacity="0" stroke="#000000" stroke-width="1" stroke-opacity="1"></use></g></g><g><g><use xlink:href="#d2EF7oKPUc" opacity="1" fill-opacity="0" stroke="#000000" stroke-width="5" stroke-opacity="1"></use></g></g><g><g><use xlink:href="#e4VRLFcWw" opacity="1" fill-opacity="0" stroke="#000000" stroke-width="1" stroke-opacity="1"></use></g></g><g><g><use xlink:href="#b3WM6GxUS1" opacity="1" fill-opacity="0" stroke="#000000" stroke-width="1" stroke-opacity="1"></use></g></g><g><g><use xlink:href="#bcnKphk8" opacity="1" fill-opacity="0" stroke="#000000" stroke-width="1" stroke-opacity="1"></use></g></g><g><g><use xlink:href="#h21yLwCyhs" opacity="1" fill-opacity="0" stroke="#000000" stroke-width="1" stroke-opacity="1"></use></g></g><g><g><use xlink:href="#aoNtoPM9u" opacity="1" fill-opacity="0" stroke="#000000" stroke-width="1" stroke-opacity="1"></use></g></g><g><g><use xlink:href="#f3K5eX3byB" opacity="1" fill-opacity="0" stroke="#000000" stroke-width="1" stroke-opacity="1"></use></g></g><g><g><use xlink:href="#a3LH71g48R" opacity="1" fill-opacity="0" stroke="#000000" stroke-width="1" stroke-opacity="1"></use></g></g><g><use xlink:href="#c2yfYuwHW2" opacity="1" fill="#af1515" fill-opacity="1"></use></g><g><use xlink:href="#eZb0XtAsw" opacity="1" fill="#af1515" fill-opacity="1"></use></g><g><use xlink:href="#c2K1Lje6Br" opacity="1" fill="#af1515" fill-opacity="1"></use></g><g><use xlink:href="#akrK1Flx" opacity="1" fill="#af1515" fill-opacity="1"></use></g><g><use xlink:href="#a1dwakZmbY" opacity="1" fill="#af1515" fill-opacity="1"></use></g><g><use xlink:href="#bl41z9sv" opacity="1" fill="#af1515" fill-opacity="1"></use></g><g><use xlink:href="#a2MH1BBZSI" opacity="1" fill="#af1515" fill-opacity="1"></use></g><g><use xlink:href="#e5btIGUU9j" opacity="1" fill="#af1515" fill-opacity="1"></use></g><g><use xlink:href="#c6ioBsGEUF" opacity="1" fill="#af1515" fill-opacity="1"></use></g><g><use xlink:href="#d5bwtEgFHK" opacity="1" fill="#af1515" fill-opacity="1"></use></g><g><use xlink:href="#g747bivhx" opacity="1" fill="#af1515" fill-opacity="1"></use></g><g><use xlink:href="#a15FHHIT1r" opacity="1" fill="#af1515" fill-opacity="1"></use></g><g><use xlink:href="#i2ywNCbn2J" opacity="1" fill="#af1515" fill-opacity="1"></use></g></g></g></svg>