<?xml version="1.0" encoding="iso-8859-1"?>
<!-- Generator: Adobe Illustrator 19.0.0, SVG Export Plug-In . SVG Version: 6.00 Build 0)  -->
<svg version="1.1" id="Layer_1" xmlns="http://www.w3.org/2000/svg" xmlns:xlink="http://www.w3.org/1999/xlink" x="0px" y="0px"
	 viewBox="0 0 224 224" style="enable-background:new 0 0 224 224;" xml:space="preserve">
<g>
	<g>
		<g>
			<path d="M112,0C50.242,0,0,50.242,0,112s50.242,112,112,112s112-50.242,112-112S173.758,0,112,0z M112,216
				C54.654,216,8,169.348,8,112S54.654,8,112,8s104,46.652,104,104C216,169.348,169.346,216,112,216z"/>
			<polygon points="56.686,83.598 68,72.283 79.314,83.598 84.971,77.942 73.656,66.627 84.971,55.312 79.314,49.656 68,60.971 
				56.686,49.656 51.029,55.312 62.344,66.627 51.029,77.942 			"/>
			<polygon points="152.686,141.656 141.372,152.97 130.058,141.656 124.402,147.312 135.716,158.627 124.402,169.942 
				130.058,175.598 141.372,164.284 152.686,175.598 158.342,169.942 147.028,158.627 158.342,147.312 			"/>
			<path d="M126.676,102.172c-0.863,2.031,0.086,4.383,2.119,5.246c0.51,0.215,1.039,0.316,1.56,0.316
				c1.557,0,3.037-0.914,3.684-2.438l9.377-22.09c0.863-2.031-0.086-4.383-2.119-5.246l-22.092-9.379
				c-2.033-0.859-4.379,0.086-5.244,2.121c-0.863,2.031,0.086,4.383,2.119,5.246l13.159,5.584
				c-55.574,18.116-63.564,54.923-64.665,66.813C55.18,149.982,48,158.146,48,168c0,11.027,8.973,20,20,20s20-8.973,20-20
				c0-9.431-6.584-17.311-15.382-19.409c1.204-10.466,9.066-43.366,59.673-59.649L126.676,102.172z M80,168c0,6.617-5.383,12-12,12
				s-12-5.383-12-12s5.383-12,12-12S80,161.383,80,168z"/>
			<path d="M176,48c-11.027,0-20,8.973-20,20s8.973,20,20,20c11.027,0,20-8.973,20-20S187.027,48,176,48z M176,80
				c-6.617,0-12-5.383-12-12s5.383-12,12-12s12,5.383,12,12S182.617,80,176,80z"/>
		</g>
	</g>
</g>
<g>
</g>
<g>
</g>
<g>
</g>
<g>
</g>
<g>
</g>
<g>
</g>
<g>
</g>
<g>
</g>
<g>
</g>
<g>
</g>
<g>
</g>
<g>
</g>
<g>
</g>
<g>
</g>
<g>
</g>
</svg>
