<?xml version="1.0" encoding="UTF-8" standalone="no"?>
<!DOCTYPE svg PUBLIC "-//W3C//DTD SVG 1.1//EN" "http://www.w3.org/Graphics/SVG/1.1/DTD/svg11.dtd">
<svg version="1.1" xmlns="http://www.w3.org/2000/svg" xmlns:xlink="http://www.w3.org/1999/xlink" preserveAspectRatio="xMidYMid meet" viewBox="0 0 640 640" width="640" height="640"><defs><path d="M46.56 43.44L611.41 43.44L611.41 608.28L46.56 608.28L46.56 43.44Z" id="kcv0SMGaM"></path><path d="M113.58 608.28L113.58 43.44" id="aE679H7m8"></path><path d="M187.1 608.28L187.1 43.44" id="a11qh54l6E"></path><path d="M258.91 608.28L258.91 43.44" id="c2az9E1TG"></path><path d="M332.43 608.28L332.43 43.44" id="b2JtziiJtE"></path><path d="M403.08 608.28L403.08 43.44" id="epridz0RO"></path><path d="M476.61 608.28L476.61 43.44" id="a4SvgukDPf"></path><path d="M537.88 608.28L537.88 43.44" id="bc0Q4D3J3"></path><path d="M611.41 608.28L611.41 43.44" id="a22ifcRIdO"></path><path d="M46.56 110.45L611.41 110.45" id="d2EF7oKPUc"></path><path d="M46.56 183.98L611.41 183.98" id="e4VRLFcWw"></path><path d="M46.56 255.78L611.41 255.78" id="b3WM6GxUS1"></path><path d="M46.56 329.31L611.41 329.31" id="bcnKphk8"></path><path d="M46.56 399.96L611.41 399.96" id="h21yLwCyhs"></path><path d="M46.56 473.48L611.41 473.48" id="aoNtoPM9u"></path><path d="M46.56 534.76L611.41 534.76" id="f3K5eX3byB"></path><path d="M46.56 608.28L611.41 608.28" id="a3LH71g48R"></path><path d="M333.81 114.7L400.63 114.7L400.63 181.53L333.81 181.53L333.81 114.7Z" id="b5hBHIZ6KM"></path><path d="M189.06 114.7L255.88 114.7L255.88 181.53L189.06 181.53L189.06 114.7Z" id="bknUh85e8"></path><path d="M262.16 114.7L328.98 114.7L328.98 181.53L262.16 181.53L262.16 114.7Z" id="b3E0hhbhW"></path><path d="M262.16 186.89L328.98 186.89L328.98 253.71L262.16 253.71L262.16 186.89Z" id="d1HZTpZka9"></path><path d="M332.43 186.89L399.25 186.89L399.25 253.71L332.43 253.71L332.43 186.89Z" id="h1HKJOcJBp"></path><path d="M405.61 114.7L472.44 114.7L472.44 181.53L405.61 181.53L405.61 114.7Z" id="b4kpuB2RyF"></path><path d="M480.09 114.7L530.64 114.7L530.64 181.53L480.09 181.53L480.09 114.7Z" id="dtRlpfCjs"></path><path d="M542.13 114.7L608.96 114.7L608.96 181.53L542.13 181.53L542.13 114.7Z" id="a4z1SeMOZ"></path><path d="M405.61 188.96L472.44 188.96L472.44 255.78L405.61 255.78L405.61 188.96Z" id="a2uLLGnyG"></path><path d="M480.09 186.89L530.64 186.89L530.64 253.71L480.09 253.71L480.09 186.89Z" id="f26QxCTr20"></path><path d="M542.13 186.89L608.96 186.89L608.96 253.71L542.13 253.71L542.13 186.89Z" id="bpinV6KXM"></path><path d="M480.09 258.88L530.64 258.88L530.64 325.71L480.09 325.71L480.09 258.88Z" id="a67KmQpuEI"></path><path d="M542.13 258.88L608.96 258.88L608.96 325.71L542.13 325.71L542.13 258.88Z" id="c59pqXjXJ"></path><path d="M405.61 333.14L472.44 333.14L472.44 399.96L405.61 399.96L405.61 333.14Z" id="bjOxzBpvx"></path><path d="M480.09 331.07L530.64 331.07L530.64 397.89L480.09 397.89L480.09 331.07Z" id="a3asfGw6Us"></path><path d="M542.13 331.07L608.96 331.07L608.96 397.89L542.13 397.89L542.13 331.07Z" id="a1JbAyrqZQ"></path><path d="M333.81 258.88L400.63 258.88L400.63 325.71L333.81 325.71L333.81 258.88Z" id="a4rS2b9f4B"></path><path d="M405.61 259.04L472.44 259.04L472.44 325.86L405.61 325.86L405.61 259.04Z" id="eaaVs7spQ"></path><path d="M542.13 402.68L608.96 402.68L608.96 469.5L542.13 469.5L542.13 402.68Z" id="aSJ8J1fVf"></path><path d="M542.13 476.2L608.96 476.2L608.96 530.58L542.13 530.58L542.13 476.2Z" id="afJ17rIAs"></path><path d="M480.09 402.68L530.64 402.68L530.64 469.5L480.09 469.5L480.09 402.68Z" id="cHggdHuaT"></path></defs><g><g><g><g><use xlink:href="#kcv0SMGaM" opacity="1" fill-opacity="0" stroke="#000000" stroke-width="1" stroke-opacity="1"></use></g></g><g><g><use xlink:href="#aE679H7m8" opacity="1" fill-opacity="0" stroke="#000000" stroke-width="5" stroke-opacity="1"></use></g></g><g><g><use xlink:href="#a11qh54l6E" opacity="1" fill-opacity="0" stroke="#000000" stroke-width="1" stroke-opacity="1"></use></g></g><g><g><use xlink:href="#c2az9E1TG" opacity="1" fill-opacity="0" stroke="#000000" stroke-width="1" stroke-opacity="1"></use></g></g><g><g><use xlink:href="#b2JtziiJtE" opacity="1" fill-opacity="0" stroke="#000000" stroke-width="1" stroke-opacity="1"></use></g></g><g><g><use xlink:href="#epridz0RO" opacity="1" fill-opacity="0" stroke="#000000" stroke-width="1" stroke-opacity="1"></use></g></g><g><g><use xlink:href="#a4SvgukDPf" opacity="1" fill-opacity="0" stroke="#000000" stroke-width="1" stroke-opacity="1"></use></g></g><g><g><use xlink:href="#bc0Q4D3J3" opacity="1" fill-opacity="0" stroke="#000000" stroke-width="1" stroke-opacity="1"></use></g></g><g><g><use xlink:href="#a22ifcRIdO" opacity="1" fill-opacity="0" stroke="#000000" stroke-width="1" stroke-opacity="1"></use></g></g><g><g><use xlink:href="#d2EF7oKPUc" opacity="1" fill-opacity="0" stroke="#000000" stroke-width="5" stroke-opacity="1"></use></g></g><g><g><use xlink:href="#e4VRLFcWw" opacity="1" fill-opacity="0" stroke="#000000" stroke-width="1" stroke-opacity="1"></use></g></g><g><g><use xlink:href="#b3WM6GxUS1" opacity="1" fill-opacity="0" stroke="#000000" stroke-width="1" stroke-opacity="1"></use></g></g><g><g><use xlink:href="#bcnKphk8" opacity="1" fill-opacity="0" stroke="#000000" stroke-width="1" stroke-opacity="1"></use></g></g><g><g><use xlink:href="#h21yLwCyhs" opacity="1" fill-opacity="0" stroke="#000000" stroke-width="1" stroke-opacity="1"></use></g></g><g><g><use xlink:href="#aoNtoPM9u" opacity="1" fill-opacity="0" stroke="#000000" stroke-width="1" stroke-opacity="1"></use></g></g><g><g><use xlink:href="#f3K5eX3byB" opacity="1" fill-opacity="0" stroke="#000000" stroke-width="1" stroke-opacity="1"></use></g></g><g><g><use xlink:href="#a3LH71g48R" opacity="1" fill-opacity="0" stroke="#000000" stroke-width="1" stroke-opacity="1"></use></g></g><g><use xlink:href="#b5hBHIZ6KM" opacity="1" fill="#af1515" fill-opacity="1"></use></g><g><use xlink:href="#bknUh85e8" opacity="1" fill="#af1515" fill-opacity="1"></use></g><g><use xlink:href="#b3E0hhbhW" opacity="1" fill="#af1515" fill-opacity="1"></use></g><g><use xlink:href="#d1HZTpZka9" opacity="1" fill="#af1515" fill-opacity="1"></use></g><g><use xlink:href="#h1HKJOcJBp" opacity="1" fill="#af1515" fill-opacity="1"></use></g><g><use xlink:href="#b4kpuB2RyF" opacity="1" fill="#af1515" fill-opacity="1"></use></g><g><use xlink:href="#dtRlpfCjs" opacity="1" fill="#af1515" fill-opacity="1"></use></g><g><use xlink:href="#a4z1SeMOZ" opacity="1" fill="#af1515" fill-opacity="1"></use></g><g><use xlink:href="#a2uLLGnyG" opacity="1" fill="#af1515" fill-opacity="1"></use></g><g><use xlink:href="#f26QxCTr20" opacity="1" fill="#af1515" fill-opacity="1"></use></g><g><use xlink:href="#bpinV6KXM" opacity="1" fill="#af1515" fill-opacity="1"></use></g><g><use xlink:href="#a67KmQpuEI" opacity="1" fill="#af1515" fill-opacity="1"></use></g><g><use xlink:href="#c59pqXjXJ" opacity="1" fill="#af1515" fill-opacity="1"></use></g><g><use xlink:href="#bjOxzBpvx" opacity="1" fill="#af1515" fill-opacity="1"></use></g><g><use xlink:href="#a3asfGw6Us" opacity="1" fill="#af1515" fill-opacity="1"></use></g><g><use xlink:href="#a1JbAyrqZQ" opacity="1" fill="#af1515" fill-opacity="1"></use></g><g><use xlink:href="#a4rS2b9f4B" opacity="1" fill="#af1515" fill-opacity="1"></use></g><g><use xlink:href="#eaaVs7spQ" opacity="1" fill="#af1515" fill-opacity="1"></use></g><g><use xlink:href="#aSJ8J1fVf" opacity="1" fill="#af1515" fill-opacity="1"></use></g><g><use xlink:href="#afJ17rIAs" opacity="1" fill="#af1515" fill-opacity="1"></use></g><g><use xlink:href="#cHggdHuaT" opacity="1" fill="#af1515" fill-opacity="1"></use></g></g></g></svg>